<svg xmlns="http://www.w3.org/2000/svg" width="270" height="350.104" viewBox="0 0 270 350.104">
  <g id="Group_1" data-name="Group 1" transform="translate(-55 -15)">
    <circle id="Ellipse_1" data-name="Ellipse 1" cx="135" cy="135" r="135" transform="translate(55 15)" fill="#fff" opacity="0.5"/>
    <g id="Coffe_call" data-name="Coffe call" transform="translate(112.214 78.414)">
      <path id="Path_1" data-name="Path 1" d="M516.617,263.686c1.051,3.032,6.63,9.942,15.488,12.979l28.662,6.23c0-.668.024-1.331.058-1.991,2.9,1.292,7.339.487,8.775.731l-8.731-1.35c.419-6.164,2.152-12.051,2.391-18.1.032-.807-27.619-6.413-30.773-7.727-1.4-.583-5.392-9.933-7.729-16.358l9.428-5.633-3.7-6.805h0l11.212-7.069a56.221,56.221,0,0,0,5.192-4.419l5.921,1.294c.02,0,1.324.11,1.482.11,2.016,0,2.532-1.567,2.866-3.337l3.339-24.131c.436-4.387,1.265-6.281-2.854-6.7l-11.829-1.928c-2.606-.317-3.183,3.088-3.169,3.091l-2.121,13.435c-2.827-.193-7.29,1.414-8.253,4.356a21.614,21.614,0,0,0-1.219,8.2l-7.025,5.279-.488-.9-3.727,2.437c-3.234-13.228-12.248-5.884-15.492-2.925.955-3.9,2.24-8.636,2.24-10.237,0-.214,9.706-2.554,9.6-8.143-.18-9.467-3.142-16.4-6.9-20.158,3.432-2.757,5.823-5.85,5.2-8.972-1.706-8.47-16.935-.768-21.579,7.093-1.506,2.547-2.3,9.506.339,11.1h0a41.188,41.188,0,0,0-.388,4.846,126.476,126.476,0,0,1-1.048,14.686c-5.533-3.412-13.957-1.635-20.7,10.764h0c1.67-2.859-19.353-19.568-33.663,5.918-.378.678-3.3,5.209-6.93,10.825h0c-6.267,9.691-14.659,22.617-15.8,24.582-6.759,11.58-1.731,17.891,6.93,18.083l26.1.583h0c-2.569,7.349-4.29,12.994-4.246,14.854l3.439.041a40.9,40.9,0,0,0-.358,18.32h0c1.721,8.626,5.606,15.741,8.017,20.145l-.044.029h.061c.324.592.624,1.136.885,1.626l.017.285-.963-1.911L428.35,402.538c-1.743,3.771-9.764,14.259-10.81,17.728-2.681-.714-4.585,6.259-1.287,6.93,5.043,1.029,1.538-1.314,2.83,2.815.446,1.428,6.937.751,6.486.843-2.289,6.61,6.581,3.8,6.4,4.429-2.142,7.8,7.736,2.63,6.956,4.263-2.016,4.217,3.215,4.614,4.334,4.144,4.67-1.928,1.263,1.143,3.147,2.1,6.625,3.364,8.787-1.692,8.941-1.728.821,4.01,10.142,2,7.731-4.192,2.274-13.308-11-12.236-11.741-13.094-1.984-2.281-4.095-8.3-2.043-14.539l-1.08-.488,23.4-51.045-1.3-2.567h.071l29.144,58.094c-.271.322-.429.877.487,2.218,2.664,7.6,2.767,15.858,4.963,19.012-.731.69-.08,6.825.895,7.034,3.566.78,4.419-4.426,5.409-1.38.548,1.687,3.361.112,4.144-.551,2.494-2.1,1.372-3.149,2.71-1.982,3.61,3.149,5.977-2.54,6.013-2.554,2.338,1.3.514,1.879,4.67,1.121,3.656-.668,4.69-3.868,4.9-3.59,1.575,2.072,5.228,1.348,6.274-.488,1.4-2.472.541-1.643,1.136-1.409,2.437.958,2.681.821,5.007-.524,1.128-.651,1.748-2.508,1.811-2.53.332.914,2.728,1.124,3.534.921a4.171,4.171,0,0,0,3.191-4.107l-.77-2.649c.646-.731-5.874-12.531-17.742-9.75-11.719,2.749-12.894-3.4-14.846-4.716l-10.554-32.981h0l-22.293-69.7a55.9,55.9,0,0,0,7.22-.548c.015,2.925.029,5.8.029,8.531V307.08a25.928,25.928,0,0,0,6.581-1.779l-6.581.158v-11.8c2.272.061,4.578.1,6.939.1l-6.939-.19v-4.656l12.626.151c.015,0,7.186-28.14,10.713-47.55l2.335-1.394Zm23.524-65.292-.119.76a15.867,15.867,0,0,1-1.706,2.108c-.3.3-.663.924-1.116,1.08C537.345,202.182,538.946,200.1,540.141,198.395ZM455.486,328.471c.166.312.319.6.453.873l6.094,12.168h-.112l-6.442-12.777A2.379,2.379,0,0,0,455.486,328.471Zm7.556,111.474c-.334.4-1.477.551-2.866.578a9.225,9.225,0,0,0,2.854-.578Zm7.012-82.349-7.907-15.683h.112l7.868,15.68Zm25.625-64.032-9.5-.263c3.12.132,6.269.263,9.491.349-.029,3.812-.015,7.827,0,11.8l-7.846.188-.258-.8-11.89-5.294L475.336,293a43.66,43.66,0,0,0-.166,6.311l-14.232-6.337c2.367-.11,4.685-.163,6.971-.176l-7.849-.214-9.506-4.234,45.173.561c-.029,1.494-.049,3.054-.061,4.651Z" transform="translate(-411.042 -160.758)" fill="#fff"/>
      <path id="Path_2" data-name="Path 2" d="M1053.2,666.1l1.029-6.094-4.285.149-3.885-2.657-4.534-.261-.4,6.581C1041.949,666.8,1050.719,667.662,1053.2,666.1Z" transform="translate(-887.159 -535.85)" fill="#fff"/>
      <path id="Path_3" data-name="Path 3" d="M1036.5,530.41l-.975,4.2-2.169,3.266,2.438.339.041,5.94c-.551-.141-1.328-.317-2.52-.527l4.826,4.716,3.346,6.111a2.918,2.918,0,0,0,.061,2.715c.161.334-2.121,1.8-1.219,3.756.4.868,1.194,1.058,3.9,2.481,2.255,1.192,8.122.378,7.868-3.188a2.723,2.723,0,0,1,.731-1.887,2.874,2.874,0,0,0,.5-.656h0a4.573,4.573,0,0,0,.914-2.7,8.973,8.973,0,0,1,.487-2.9,3.642,3.642,0,0,0,.176-.6c.068-.244.136-.5.2-.809.512-2.269-1.007-3.854-3.305-4.875l.975-5.214,2.9.4-1.2-4.022.154-4.163Zm6.413,22.941a2.436,2.436,0,0,0-1.219.8A1.69,1.69,0,0,1,1042.909,553.351Z" transform="translate(-881.253 -439.935)" fill="#fff"/>
      <path id="Path_4" data-name="Path 4" d="M933.819,431.972a2.146,2.146,0,0,0-.339-.222Z" transform="translate(-805.756 -365.322)" fill="#fff"/>
      <path id="Path_5" data-name="Path 5" d="M989,466.533l4.656,3.047C993.095,467.291,992.632,464.966,989,466.533Z" transform="translate(-847.743 -391.24)" fill="#fff"/>
      <path id="Path_6" data-name="Path 6" d="M1012.82,483.691l-4.69-3.071C1008.669,482.792,1009.317,484.932,1012.82,483.691Z" transform="translate(-862.21 -402.281)" fill="#fff"/>
      <path id="Path_7" data-name="Path 7" d="M642.8,700.989l7.427.2,10.834.285C654.982,701.233,649.008,700.95,642.8,700.989Z" transform="translate(-585.927 -568.933)" fill="#fff"/>
      <path id="Path_8" data-name="Path 8" d="M472.319,426.568c-2.437-.519-2.121-1.238-3.542.756-1.95,2.735-5.177,8.553-5.177,8.553.1.488,1.782.266,2.281.646Z" transform="translate(-450.406 -360.977)" fill="#fff"/>
      <path id="Path_9" data-name="Path 9" d="M890.29,489.841l-1.065,4.556-2.562,3.856,2.805.388.034,4.875c-.4-.09-.882-.193-1.482-.3.051-.607.095-1.219.119-1.826.027-.687.032-.851-16.331-4.577-6.562-1.5-13.345-3.042-14.756-3.629-.58-.244-2.454-3.564-5.2-10.257-.765-1.865-1.492-3.739-2.111-5.423l-.439.261-.434.261-2.64,1.577-.58.346-.58.346-4.553,22.459-.027.134.044.129c1.08,3.115,6.825,10.213,15.8,13.289l29.323,6.379v-.622c0-.427,0-.853.024-1.28a12.953,12.953,0,0,0,3.61.539l-.4,6.64.022.08c.273.975,1.243,1.818,2.8,2.425a16.721,16.721,0,0,0,5.738.975,8.785,8.785,0,0,0,4.278-.836l.19-.12,1.068-6.306a6.554,6.554,0,0,0,2.1-.853,3.35,3.35,0,0,0,1.674-3.147,2.168,2.168,0,0,1,.617-1.516,3.393,3.393,0,0,0,.563-.753h0a5.045,5.045,0,0,0,.975-2.925,8.409,8.409,0,0,1,.436-2.749l.015-.051a4.082,4.082,0,0,0,.173-.587c.068-.244.139-.522.21-.838a3.9,3.9,0,0,0-.9-3.586,7.261,7.261,0,0,0-2.323-1.706l.821-4.361,3.2.444-1.392-4.67.168-4.536Zm17.247,10.293-3.576-.487L892.9,498.1l-2.437-.339-.487-.068-.5-.071-1.085-.149,1.66-2.5,18.227,2.408.885,2.966Zm.748-6.925-.115,3.169-17.832-2.364.717-3.064Zm-22.554,26.527a82.1,82.1,0,0,1,1.185-8.775c.383-2.208.768-4.473,1.009-6.752.665.124,1.177.244,1.584.331v.332c.1,1.636,2.718,2.925,7.766,3.815.931.166,1.87.3,2.764.4a9.168,9.168,0,0,1,4.5,3.108,1.893,1.893,0,0,1,.132,1.965,1.589,1.589,0,0,1-.895.87c-.831.258-2.05-.395-3.23-1.026a7.478,7.478,0,0,0-3.261-1.177v-.049c-.107.022-.21.046-.31.076a2.156,2.156,0,0,0-.327.073,2.237,2.237,0,0,0-1.175.914,2.636,2.636,0,0,0-.3.458,3.41,3.41,0,0,0,0,2.879c-.054.071-.127.158-.193.244a3.907,3.907,0,0,0-1.18,2.871,17.168,17.168,0,0,0-1.977,0A17,17,0,0,1,885.731,519.736Zm8.231,1.167c.017.051.039.1.061.154h-.088Zm11.8-.66a2.38,2.38,0,0,1-1.219,2.238,6.931,6.931,0,0,1-5.913.487c-.648-.344-1.2-.619-1.636-.841-1.428-.719-1.809-.926-2.03-1.406-.468-1.012.139-1.867.8-2.657l.11-.129a10.843,10.843,0,0,0,6.644,2.438,9.088,9.088,0,0,0,1.626-.146,7.541,7.541,0,0,0,1.64-.487A2.439,2.439,0,0,0,905.762,520.243Zm2.143-5.292a4.479,4.479,0,0,1-1.177,2.905l-.11.141a5.238,5.238,0,0,1-2.664,1.238,9.436,9.436,0,0,1-7.819-2.384,2.427,2.427,0,0,1-.073-2.1c0-.022.027-.044.039-.068h.019a2.466,2.466,0,0,1,.146-.244,1.928,1.928,0,0,1,.917-.6,6.178,6.178,0,0,1,2.891,1.053,7.729,7.729,0,0,0,3.3,1.2,2.364,2.364,0,0,0,.7-.1,2.437,2.437,0,0,0,1.38-1.172v.032a6.271,6.271,0,0,0,2.508-.907C907.934,514.232,907.915,514.564,907.9,514.951Zm.19-7.125a2.925,2.925,0,0,1,.685,2.71c-.054.244-.107.448-.161.646h0a1.032,1.032,0,0,1-.024.144c-.063.224-.124.427-.183.617a3.278,3.278,0,0,1-2.555,1.8,3.02,3.02,0,0,0-.448-2.064,7.606,7.606,0,0,0-2.469-2.318c1.18.085,2.055.117,2.362.117h.1l.385-.027.558-2.952A6.011,6.011,0,0,1,908.1,507.827Z" transform="translate(-735.432 -399.921)"/>
      <path id="Path_10" data-name="Path 10" d="M553.606,425.866V425.8l-.731-2.562a2.908,2.908,0,0,0-.507-1.748l-.022-.073h-.017c-.1-.183-.2-.38-.334-.6-.639-1.073-6.559-10.4-17.5-7.834-8.994,2.111-11.483-1.1-13.131-3.227a7.449,7.449,0,0,0-1.172-1.309L487.581,306.561a56.994,56.994,0,0,0,6.045-.458c.015,2.774.027,5.406.027,7.963h1c0-2.6,0-5.282-.027-8.109a27.855,27.855,0,0,0,5.306-1.348l-4.8,15.139.953.3,10.142-32.038h.763l.149-.149c.1-.1.154-.154,2.145-8.307,1.092-4.458,2.737-11.317,4.387-18.673q2.74-12.187,4.278-20.611l-.575.344-.575.344L496.1,253.322c-8.775,4.875-15.424,7.293-20.1,7.293a8.523,8.523,0,0,1-4.9-1.309c-5.175-3.505-3.941-13.162-2.749-22.512a91.524,91.524,0,0,0,.975-10.947h1a93.737,93.737,0,0,1-.992,11.073c-1.153,9.045-2.347,18.4,2.318,21.557,3.968,2.681,11.8.719,23.938-6.023L516.606,239.9l.419-.244.039-.022.536-.319.573-.344,1.2-.714.58-.349.58-.346,2.023-1.207.436-.261.436-.263,8.494-5.075-3.469-6.371.273.441.283-.178.424-.268.117-.073,10.82-6.825.037-.024a57,57,0,0,0,5.041-4.273l5.735,1.255h.039l.307.024c.692.056,1.063.083,1.17.083,2.652,0,3.113-2.437,3.359-3.744l3.344-24.165c.054-.551.117-1.063.173-1.538.244-2.023.414-3.483-.378-4.475a4.263,4.263,0,0,0-3.081-1.233l-11.834-1.93c-2.454-.3-3.51,2.147-3.722,3.481a.261.261,0,0,0,0,.041l-2.05,12.984c-3.057-.024-7.312,1.706-8.3,4.716a21.78,21.78,0,0,0-1.246,8.1l-6.337,4.763-.11.083-.4.3-.295.222-.022-.041-2.988,1.95-.436.288-.439.285-4.8,3.139-.453.3-20.718,13.557a.414.414,0,0,1-.258.132l-2.735.631,2.177-1.423v.012l.409-.224a16.25,16.25,0,0,0,3.3-2.218L517.686,213.6l.431-.283.429-.28c-1.016-3.7-2.594-6.013-4.721-6.915-3.539-1.5-7.658,1.238-10.2,3.359.061-.244.119-.475.18-.714a63.249,63.249,0,0,0,1.679-7.775l.371-.132c2.311-.819,9.338-3.31,9.24-8.346-.175-9.228-2.964-16.163-6.649-20.111,3.322-2.759,5.577-5.879,4.933-9.1a4.669,4.669,0,0,0-4-3.995c-5.318-.9-14.825,4.716-18.5,10.929-1.587,2.681-2.386,9.521.232,11.595a43.157,43.157,0,0,0-.361,4.595c-.163,5.986-.519,11.185-.917,13.906a10.615,10.615,0,0,0-3.391-1.116c-6-.909-11.943,3.186-16.653,11.193-.029-.058-.063-.117-.1-.178-1.389-2.406-7.069-6.866-14.52-6.866h-.119c-5.345.034-13.092,2.523-19.641,14.191-.275.488-1.95,3.1-4.256,6.681-.412-.1-.731-.2-.994-.29-1.338-.439-1.64-.2-2.725,1.321-1.95,2.728-5.075,8.363-5.206,8.6l-.09.161.037.183c.129.626.863.7,1.572.775.115.012.271.027.422.049-5.35,8.268-10.588,16.372-11.49,17.915-4.246,7.276-3.505,11.717-2.138,14.162,1.631,2.925,5,4.575,9.489,4.675l25.418.568c-2.464,7.1-4.095,12.524-4.051,14.381v.487l3.288.039c-3.932,16.355,3.761,30.731,7.732,37.98L426.3,400.812a78.294,78.294,0,0,1-4.753,7.6c-3.015,4.5-5.194,7.832-5.933,9.777a2.108,2.108,0,0,0-1.258.388,5.719,5.719,0,0,0-1.852,5.326,2.62,2.62,0,0,0,2.062,2.252,13.775,13.775,0,0,0,2.145.3,5.319,5.319,0,0,0,.307,2.177c.329,1.051,2.213,1.419,6.284,1.219a3.588,3.588,0,0,0,.373,3.213c1.231,1.565,3.988,1.3,5.635,1.148l.453-.039c-.368,1.66-.195,2.849.519,3.624,1.258,1.365,3.8.882,5.484.565.314-.059.673-.127.946-.163a2.966,2.966,0,0,0,.383,3.378,5.217,5.217,0,0,0,4.768,1.055,5.622,5.622,0,0,1,1.93-.587,3.24,3.24,0,0,1-.044.431,1.889,1.889,0,0,0,.843,2.24,9.8,9.8,0,0,0,4.387,1.2,5.694,5.694,0,0,0,4.66-2.335,3.19,3.19,0,0,0,1.95,1.372,5.911,5.911,0,0,0,5.657-1.684,4.686,4.686,0,0,0,.753-4.968c.595-3.607.11-6.535-1.443-8.7-2.423-3.381-6.805-4.078-9.162-4.451a9.165,9.165,0,0,1-1.3-.258c-1.967-2.3-3.851-8.134-1.913-14.02l.139-.422-1.031-.487,22.795-49.7,27.3,54.4c-.388.8.139,1.767.619,2.474a70.693,70.693,0,0,1,2.5,10.4c.653,3.532,1.219,6.6,2.335,8.407-.488,1.282-.08,4.565.3,5.928.28.975.607,1.462,1.065,1.574a3.8,3.8,0,0,0,.821.09,4.716,4.716,0,0,0,3.378-1.838,4.931,4.931,0,0,1,.583-.558,2.266,2.266,0,0,1,.258.592,1.494,1.494,0,0,0,1.036,1.026c1.416.4,3.473-.975,3.9-1.35A6.739,6.739,0,0,0,516,439.209l.244.2a3.54,3.54,0,0,0,3.076,1.014c1.653-.339,2.823-2.023,3.466-3.237a3.7,3.7,0,0,1,.731.653c.678.731,1.036.76,3.817.244a7.242,7.242,0,0,0,4.809-3.344,4.074,4.074,0,0,0,3.113,1,4.481,4.481,0,0,0,3.6-2c.285-.507.487-.88.614-1.15,2.476.975,2.91.809,5.345-.6a4.953,4.953,0,0,0,1.706-2.086,5.739,5.739,0,0,0,3.517.531A4.66,4.66,0,0,0,553.606,425.866ZM522.59,212.834l.4-.3.11-.083,6.866-5.148v-.244a21.234,21.234,0,0,1,1.194-8.044c.8-2.437,4.529-3.99,7.2-4.029.173,0,.339,0,.5.012a1.835,1.835,0,0,1,.329.029c-.11.19-.263.429-.444.7s-.414.612-.656.953c-1.114,1.577-2.581,3.507-2.84,3.819l-1.133,1.372,1.684-.583a2.587,2.587,0,0,0,1.053-.9c.093-.115.18-.224.244-.3.175-.173.356-.375.539-.59s.417-.5.631-.787.429-.58.648-.9c1.192-1.706,2.459-3.885,3.625-5.882,1.3-2.216,2.908-4.975,3.412-5.209.617-.212,1.426-.388,1.784,0,.434.458.358,1.723-.163,3.369a22.339,22.339,0,0,0-1.921,3.412c-1.065,2.106-2.523,4.989-3.337,5.445l.487.873c1-.561,2.182-2.786,3.739-5.867.322-.636.648-1.282.943-1.833l.278.132.227-.417c2.123-3.912,3.412-4.66,4.114-4.6a.641.641,0,0,1,.578.307c.673,1.219-1.343,5.219-2.194,6.93-.327.651-.568,1.129-.665,1.409a69.455,69.455,0,0,1-4.053,7.312.413.413,0,0,1,.141-.063l.227.975c.244-.056.471-.112,1.852-2.593l-.383,1.175,3.122-6.384c.958-1.95,1.482-2.23,1.587-2.267.261.244.568,1.882-.115,5.455-.792,4.144-2.437,8.031-7.069,12.621-.139.139-.28.278-.427.417l-.439.417a57.638,57.638,0,0,1-4.446,3.722l-10.749,6.769-.024.015-1.014-1.645-4.695-7.576-.826-1.338Zm24.189-29.249c-.156.31-.522.787-.846.853-1.375.28-.751-1.3-.583-1.784.609-1.753,2.274-.763,1.428.938Zm.073,245.29-.171-.468-.468.168c-.214.076-.28.229-.395.487a4.765,4.765,0,0,1-1.5,2.086c-2.26,1.3-2.362,1.365-4.531.509a.5.5,0,0,0-.436-.373.517.517,0,0,0-.544.375,13.984,13.984,0,0,1-.819,1.609,3.523,3.523,0,0,1-2.793,1.492,2.966,2.966,0,0,1-2.645-1.051.529.529,0,0,0-.444-.212c-.319,0-.488.244-.731.622a6.3,6.3,0,0,1-4.209,2.993c-2.491.456-2.584.4-2.9.056a5.132,5.132,0,0,0-1.438-1.124l-.227-.124-.244.112a.561.561,0,0,0-.273.31c-.848,1.76-1.933,2.893-2.976,3.105a2.577,2.577,0,0,1-2.218-.787c-.509-.444-.768-.665-1.133-.595s-.488.339-.612.607a5.762,5.762,0,0,1-1.616,1.967c-.6.507-2.208,1.375-2.988,1.15a.488.488,0,0,1-.361-.373c-.185-.57-.448-1.167-.987-1.292s-1.016.339-1.528.878c-.753.795-1.692,1.777-3.215,1.462-.519-.5-.992-4.056-.851-5.582a1.9,1.9,0,0,1,.11-.544h.032l.556-.158,47.35-13.528.124.427.154.526.149.517.529,1.821a3.671,3.671,0,0,1-2.81,3.534c-.838.219-2.769-.112-2.944-.6Zm-32.906-19.066c-.036-5.487-.041-12.136,0-17.52L519.1,408.4Zm-1,.271-1.911.522c-2.647-.9-6.276-.67-9.331-.473-1.038.066-2.025.129-2.891.144-.826-3.027-.787-9.033-.709-15.468,1.545.1,3.137.244,4.716.373,3.066.263,6.237.534,8.867.534v-1c-2.589,0-5.606-.258-8.775-.529-1.6-.137-3.22-.275-4.79-.378.078-6.537.146-13.252-.67-17.525,1.95.068,3.9.119,5.981.119,1.706,0,3.488-.034,5.4-.115L513,389.275c-.1,5.835-.1,14.205-.051,20.811Zm-57.433-63.023c-.3-3.108-.529-5.567-.59-6.481,1.636.1,3.471.193,5.433.29l7.619,15.185c-4.387-.214-8.314-.424-11.683-.624C456.048,352.7,455.784,349.881,455.516,347.056Zm-1.046-36q.037-2.954.066-6.028c4.67.044,9.723.412,14.681.773l3.98.285c.076,4.175.188,8.687.329,13.009.027.807.056,1.66.088,2.55-7.234-.388-14.781.093-19.227,2.194C454.368,319.562,454.417,315.365,454.47,311.06Zm.1-11.887c0-1.131.073-2.23.146-3.293a16.217,16.217,0,0,0,0-3.856,18.242,18.242,0,0,0,2.367.044c5.606-.349,10.881-.356,16.114-.227-.08.873-.134,2.981-.088,8.346.015,1.543.036,3.188.063,4.9l-3.9-.278c-4.975-.363-10.042-.731-14.744-.778q.041-2.384.041-4.858Zm19.139-7.207.017-.112h.363a.487.487,0,0,1-.38.112Zm.9,48.483c-4.67-.168-9.418-.366-13.611-.566l-6.181-12.29c-.119-.244-.244-.5-.4-.773,0-.619-.015-1.236-.02-1.85,4.168-2.194,11.883-2.681,19.256-2.286.207,5.535.517,12.241.946,17.764Zm-20.158-11.363,5.389,10.742c-1.8-.088-3.471-.178-4.975-.263C454.648,335.917,454.519,332.451,454.449,329.085Zm7.069,11.834c4.092.2,8.67.385,13.162.546.366,4.4.816,7.914,1.36,9.233a25.749,25.749,0,0,1,.59,5.755l-2.437-.11q-2.627-.117-5.077-.244Zm32.857,4.765c.117,3.412.258,7.439.439,11.473-4.536-.146-10.54-.373-17.182-.661a25.368,25.368,0,0,0-.668-6.181c-.451-1.094-.885-4.144-1.277-8.816,7.034.244,13.781.41,18.083.41h.47C494.281,343.052,494.328,344.339,494.374,345.684Zm-17.71,11.785c.024.819.044,1.64.063,2.42.1,4.212.171,5.406.439,5.8l.829-.563.02.037a41.584,41.584,0,0,1-.288-5.3c-.02-.773-.039-1.567-.061-2.352,6.393.28,12.507.512,17.194.658a169.282,169.282,0,0,0,1.377,17.062l-2.559-.107c-3.266-.141-6.647-.288-10.466-.288v1c3.8,0,7.166.146,10.423.285l2.791.117c.843,4.144.775,10.912.7,17.5-3.488-.2-6.676-.178-8.877.463l-18.6-37.071C471.976,357.257,474.333,357.367,476.663,357.469Zm20.594,17.81a165.045,165.045,0,0,1-1.4-17.077c2.847.083,5.08.132,6.406.132h.816l5.433,16.977c-4.187.161-7.756.1-11.259-.032Zm-1.443-18.091c-.183-4.053-.322-8.1-.441-11.539q-.077-2.194-.134-3.749c1.131-.012,2.006-.044,2.559-.093l4.97,15.534C501.7,357.35,499.239,357.3,495.814,357.189Zm1.672-16.355c-.526.039-1.3.061-2.286.071a31.946,31.946,0,0,0-.244-3.8l-.953.3c.061.244.132,1.589.207,3.505-4.234,0-11.261-.171-18.6-.427-.361-4.582-.682-10.579-.948-17.749a71.652,71.652,0,0,1,13.718,2.089l.273-.96a72.571,72.571,0,0,0-14.03-2.155c-.024-.685-.049-1.377-.071-2.082-.163-4.853-.275-9.452-.346-13.469,3.759.244,7.488.444,11.025.444h1.3Zm-10.237-35.255-.778-2.437-.951.322.687,2.145c-3.822.041-7.9-.166-12.026-.441-.117-7.047-.1-12.114,0-13.287,3.169.088,6.337.224,9.555.363s6.489.278,9.847.371c-.027,4.051,0,8.319.015,12.5a56.04,56.04,0,0,1-6.347.461Zm13.057-2.194a24.963,24.963,0,0,1-5.7,1.57c-.022-4.129-.041-8.334-.015-12.324,2.13.051,4.295.085,6.5.085v-1c-2.194,0-4.363-.034-6.493-.088,0-1.28.027-2.535.049-3.759l10.532.127ZM420.051,270.8c-4.119-.09-7.188-1.57-8.638-4.166-1.779-3.169-1.043-7.732,2.128-13.162.895-1.531,6.167-9.684,11.532-17.979h0l.4-.617.607-.936c1.058-1.638,2.106-3.254,3.1-4.794.266,0,.539.012.829.012,2.106,0,4.86-.166,7.749-.341,2.981-.178,6.064-.363,8.5-.363h1.365c3.6,0,10.169-.017,14.381.244l.522.034.356.027c-1.855,4.965-3.9,10.384-5.928,15.641-.487,1.275-.975,2.54-1.462,3.785-2.681,6.952-5.219,13.343-7.025,17.676l-.171.039-.317.078-.232.054-.1.21v.022c-1.818,3.656-2.077,4.716-2.018,5.119Zm12.143-46.311c2.218-3.442,3.81-5.928,4.085-6.42,6.315-11.249,13.7-13.65,18.768-13.681h.132c6.961,0,12.407,4.207,13.65,6.367.3.527.3.812.244.9l-.044.093a.216.216,0,0,1-.012.037c-.351,1.043-.807,2.352-1.348,3.873-1.153,3.227-2.7,7.454-4.446,12.117l-.336-.027-.522-.039c-4.183-.28-10.793-.268-14.759-.261h-1.348c-2.467,0-5.565.185-8.56.366s-5.784.351-7.868.334l1.95-3.037.41-.634Zm29.915,39.891a41.274,41.274,0,0,1-14.625,6.2l-.373.073-.244.046-.149.032a41.879,41.879,0,0,1,1.706-3.851h.037l.117-.027.607-.151c7.483-1.923,13.735-5.83,17.757-11.1a37.043,37.043,0,0,0,1.462,3.432A30.8,30.8,0,0,1,462.109,264.381ZM509.2,160.3a3.7,3.7,0,0,1,3.193,3.208c.558,2.786-1.562,5.606-4.673,8.187l-.407.329c-.129.1-.263.21-.4.312-4.358,3.371-10.237,6.24-13.6,7.885l-1.026.5-.544.268-.061.032a2.46,2.46,0,0,1-.388-.419c-1.555-2.125-.831-7.7.436-9.852,3.2-5.416,11.358-10.537,16.414-10.537a6.335,6.335,0,0,1,1.053.083ZM491.21,196.864c.244-2.852.434-6.64.536-10.388a42.231,42.231,0,0,1,.358-4.529c.463-.244,1.019-.5,1.653-.814,3.688-1.8,9.523-4.651,13.893-8.066a17.715,17.715,0,0,1,1.987,2.562c1.95,3.02,4.295,8.407,4.456,16.93.083,4.314-6.432,6.625-8.575,7.383-.807.288-1.024.363-1.024.751a54.1,54.1,0,0,1-1.662,7.856c-.18.731-.361,1.433-.529,2.116-.18.166-.346.319-.487.451-.207.193-.422.392-.488.434a5,5,0,0,1-2.016-.122,3.3,3.3,0,0,0-.1-.319c-.066-.171-.156-.407-2.6-1.74l-.417-.227-.012.019a13.137,13.137,0,0,0-5.45-8.265c.158-.914.314-2.2.468-4.041Zm2.5,25.5c.787-2.681,1.633-5.55,2.194-7.927.041-.166.078-.329.115-.488s.078-.346.115-.514c.11-.512.2-.992.273-1.428.029-.173.054-.339.073-.5s.041-.339.056-.487.027-.366.029-.529c.244.141.5.285.731.424l.392.244a7.212,7.212,0,0,1,.624.412q.032.1.059.219a4.148,4.148,0,0,1,.083.524,11.819,11.819,0,0,1-.034,2.113c-.017.168-.034.339-.054.514s-.039.329-.061.488a36.906,36.906,0,0,1-2,7.961c-.292.7-.488,1.287-.682,1.8a5.552,5.552,0,0,1-2.771,3.656c-.31.2-.66.417-1.065.651.236-1.4,1.158-4.534,1.923-7.144ZM423.846,234c-.144-.015-.344-.037-.509-.063.78-1.384,3.3-5.826,4.911-8.083a4.956,4.956,0,0,1,.917-1.094c.093-.044.261,0,.685.144.2.063.439.141.731.224l-5.828,9.019a5.453,5.453,0,0,0-.907-.146Zm21.874,53.278,47.93.59c-.024,1.219-.039,2.469-.049,3.744-3.347-.1-6.61-.244-9.811-.371a246.68,246.68,0,0,0-26.761-.163,18.731,18.731,0,0,1-2.713-.078,1.541,1.541,0,0,0-.358-.353,2.312,2.312,0,0,0-2.277.063l-.378-.046a42.3,42.3,0,0,0-4.855-.427v1a41.445,41.445,0,0,1,4.734.419c.831.1,1.674.2,2.493.288a13.986,13.986,0,0,1,.039,3.878c-.071,1.031-.149,2.194-.149,3.361q0,2.472-.022,4.855a57.621,57.621,0,0,0-8.161.5,40.228,40.228,0,0,1,.336-17.257Zm-.139,18.235a57.271,57.271,0,0,1,7.956-.488q-.024,3.071-.066,6.021c-.056,4.485-.107,8.855-.08,13.328-.076.046-.151.093-.224.141-2.345-4.28-5.889-10.961-7.585-18.995Zm7.5,20.918.339.629c.056,3.983.188,8.083.446,12.431-2.269-.139-4.068-.268-5.17-.383Zm-4.719,13.65c1.129.127,3.074.271,5.562.424v.085c.056.9.28,3.271.592,6.549.217,2.286.487,5.148.768,8.214-6.076-.373-10.2-.707-11.87-.975Zm-5.272,15.254c1.762.3,6.364.663,12.294,1.026.57,6.337,1.148,13.345,1.336,17.915a156.7,156.7,0,0,0-16.377-1.448,14.638,14.638,0,0,0-1.44-5.379Zm-4.631,13.406a18.566,18.566,0,0,1,.9,4.088,20.761,20.761,0,0,0-2.355.122Zm-1.826,5.28a15.247,15.247,0,0,1,2.849-.2,161.472,161.472,0,0,1,.646,17.793c-3.883-.3-7.985-.641-9.262-.892Zm-6.094,17.635a94.4,94.4,0,0,0,9.579.951c-.061,5.058-.256,9.979-.524,13.774l-12.187-5.65Zm25.349,52.317a2.051,2.051,0,0,1-1.606-1.545l-.1-.5-.5.117c-.215.049-.307.193-.434.39-1.772,2.766-4.522,3.23-8.17,1.377-.4-.2-.4-.524-.3-1.219.068-.487.144-1.031-.29-1.37a1.056,1.056,0,0,0-.665-.2,6.911,6.911,0,0,0-2.3.658,4.33,4.33,0,0,1-3.656-.817c-.575-.607-.585-1.5-.032-2.659a.7.7,0,0,0-.041-.77c-.329-.429-.975-.3-2.167-.08-1.463.275-3.683.695-4.563-.261-.534-.575-.585-1.665-.154-3.234a.556.556,0,0,0-.107-.5c-.244-.288-.6-.244-1.54-.166-1.35.127-3.863.363-4.755-.773a2.879,2.879,0,0,1-.1-2.681l.193-.041-.059-.461c-.061-.466-.466-.444-.892-.419-5.323.3-5.626-.466-5.635-.487-.5-1.594-.195-2.011-.2-2.011l.363-.244-.383-.778-.414.132a6.863,6.863,0,0,1-2.574-.244,1.65,1.65,0,0,1-1.282-1.462,4.767,4.767,0,0,1,1.433-4.3,1.285,1.285,0,0,1,.429-.193,1,1,0,0,1,.5.015,1.385,1.385,0,0,1,.383.178c.156.1.319.2.487.3,1.131.675,2.515,1.331,3.971,2.018a49.555,49.555,0,0,1,7.069,3.841c1.441,1,3.03,2.213,4.712,3.5,2.35,1.8,4.931,3.773,7.593,5.5a31.18,31.18,0,0,0,8.758,4.2,13.627,13.627,0,0,0,3.412.47c.307,0,.912.039,1.614.083,2.023.132,3.656.2,4.909.173a7.658,7.658,0,0,0,2.476-.351,3.552,3.552,0,0,1-.717,3.461,5.017,5.017,0,0,1-4.673,1.37ZM446.4,409.543l-5.85-2.708c.285-3.832.5-8.9.568-14.137l.751.059c4.794.368,9.73.748,11.722,1.082Zm7.629-16.648c-1.894-.358-6.849-.731-12.075-1.141l-.816-.063a156,156,0,0,0-.673-17.854,156.1,156.1,0,0,1,16.287,1.462,14.255,14.255,0,0,1-.161,3.827l.912.412a14.048,14.048,0,0,0,.244-4.1c1.653.244,3.039.488,3.975.695Zm8.112-17.7c-.948-.219-2.516-.488-4.429-.765-.154-4.292-.675-10.8-1.323-18,3.69.222,7.841.444,12.112.656l1.014,2.021Zm26.568,19.929a29.314,29.314,0,0,1,8.409-.373c-.083,6.8-.124,13.131.86,16.187l.487-.154v.487c.975,0,2.121-.073,3.329-.151a35.968,35.968,0,0,1,7.264.02l-10.82,2.944Z" transform="translate(-409.471 -159.22)"/>
      <path id="Path_11" data-name="Path 11" d="M967.286,452.683c.444-3.878-.685-7.025-3.093-8.633a6.262,6.262,0,0,0-6.547-.2c-2.15,1.2-3.707,1.6-4.631,1.2-.96-.419-1.28-1.706-1.619-3.091-.366-1.482-.743-3.015-2.052-3.564-1.141-.475-2.715-.078-4.96,1.253-.79.47-1.38.636-1.753.488-.5-.193-.768-1.034-1.05-1.926-.517-1.638-1.219-3.88-4.18-3.249a3.071,3.071,0,0,1-2.291-.08c-.4-.293-.487-1.009-.565-1.811-.1-1.107-.224-2.481-1.555-3.169l-.458.887c.785.407.909,1.168,1.019,2.372a3.189,3.189,0,0,0,.975,2.525c.656.487,1.638.563,3.093.244,1.965-.419,2.437.7,3.018,2.574.341,1.077.692,2.194,1.648,2.557a3.047,3.047,0,0,0,2.62-.568c1.894-1.126,3.264-1.526,4.061-1.189.846.353,1.148,1.579,1.462,2.879.366,1.477.778,3.152,2.194,3.768,1.258.548,3.01.154,5.513-1.238a5.267,5.267,0,0,1,5.506.154c2.086,1.394,3.054,4.2,2.654,7.69Z" transform="translate(-805.037 -363.923)"/>
      <path id="Path_12" data-name="Path 12" d="M1015.6,464.4l1-.022c-.08-3.534-1.462-8.643-5.1-11.415a8.559,8.559,0,0,0-7.527-1.406l-.066.022c-3.707,1.506-4.387.244-5.418-1.665-1.058-1.962-2.377-4.4-7.415-3.766l.124.992c4.363-.551,5.4,1.382,6.41,3.249,1.048,1.95,2.13,3.949,6.642,2.128a7.5,7.5,0,0,1,6.644,1.243C1014.031,456.151,1015.515,460.829,1015.6,464.4Z" transform="translate(-849.308 -376.135)"/>
    </g>
    <circle id="Ellipse_2" data-name="Ellipse 2" cx="35.5" cy="35.5" r="35.5" transform="translate(223 236)" fill="#fff" opacity="0.5"/>
    <circle id="Ellipse_3" data-name="Ellipse 3" cx="15" cy="15" r="15" transform="translate(75 36)" fill="#fff" opacity="0.5"/>
  </g>
</svg>
