<svg id="call" xmlns="http://www.w3.org/2000/svg" width="274.472" height="274.472" viewBox="0 0 274.472 274.472">
  <g id="Group_1" data-name="Group 1">
    <path id="Path_1" data-name="Path 1" d="M259.224,190.606a173.589,173.589,0,0,1-54.437-8.692,15.3,15.3,0,0,0-15.477,3.736l-33.546,33.623A229.641,229.641,0,0,1,55.276,118.862l33.546-33.7a15.3,15.3,0,0,0,3.736-15.477,173.589,173.589,0,0,1-8.692-54.437A15.2,15.2,0,0,0,68.618,0H15.248A15.244,15.244,0,0,0,0,15.248C0,158.431,116.041,274.472,259.224,274.472a15.2,15.2,0,0,0,15.248-15.248v-53.37A15.2,15.2,0,0,0,259.224,190.606Z" fill="#fff"/>
  </g>
</svg>
