<svg xmlns="http://www.w3.org/2000/svg" width="467.968" height="274.944" viewBox="0 0 467.968 274.944">
  <g id="video-camera" transform="translate(0 -96.512)">
    <g id="Group_3" data-name="Group 3">
      <g id="Group_2" data-name="Group 2">
        <path id="Path_2" data-name="Path 2" d="M264.7,96.512H51.2A51.351,51.351,0,0,0,0,147.712V320.256a51.351,51.351,0,0,0,51.2,51.2H264.7a51.351,51.351,0,0,0,51.2-51.2V147.712A51.023,51.023,0,0,0,264.7,96.512Z" fill="#fff"/>
      </g>
    </g>
    <g id="Group_5" data-name="Group 5">
      <g id="Group_4" data-name="Group 4">
        <path id="Path_3" data-name="Path 3" d="M430.08,124.672a26.08,26.08,0,0,0-8.7,3.584L341.5,174.336V293.12l80.384,46.08c14.848,8.7,33.28,3.584,41.984-11.264a31.278,31.278,0,0,0,4.1-15.36V154.368A30.815,30.815,0,0,0,430.08,124.672Z" fill="#fff"/>
      </g>
    </g>
  </g>
</svg>
